
        <svg xmlns="http://www.w3.org/2000/svg" xmlns:xlink="http://www.w3.org/1999/xlink" version="1.1" width="3187.5" height="1126.044758209272" viewBox="0 0 3187.5 1126.044758209272">
			
			<g transform="scale(9.375) translate(10, 10)">
				<defs id="SvgjsDefs5780"/><g id="SvgjsG5781" featureKey="monogramFeature-0" transform="matrix(2.381281130410896,0,0,2.381281130410896,-7.143365352751975,-42.86306034739613)" fill="#000"><path d="M23.977 18 l21.017 42.041 l-9.2925 0 l-8.0736 -16.094 l-15.365 0 l-8.0148 16.054 l-1.2483 0 z M12.823 42.832 l14.239 0 l-7.134 -14.228 z M20.552 27.356 l15.838 31.564 l6.7958 0 l-19.209 -38.419 z"/></g><g id="SvgjsG5782" featureKey="nameFeature-0" transform="matrix(0.8334058188858182,0,0,0.8334058188858182,117.16641934151072,28.265818986280646)" fill="#000"><path d="M17.12 28.7 l5.6 10.6 c0.22 0.42 0.02 0.7 -0.44 0.7 l-1.48 0 c-0.32 0 -0.54 -0.14 -0.7 -0.44 l-5.56 -10.58 l-0.58 0 l-8.06 0 l0 10.42 c0 0.36 -0.24 0.6 -0.6 0.6 l-1.3 0 c-0.36 0 -0.6 -0.24 -0.6 -0.6 l0 -26.8 c0 -0.36 0.24 -0.6 0.6 -0.6 l9.96 0 c6.7 0 9.44 3.12 9.44 8.48 c0 4.44 -1.86 7.34 -6.28 8.22 z M5.9 26.619999999999997 l8.2 0 c3.98 0 6.84 -1.16 6.84 -6.14 s-2.86 -6.12 -6.84 -6.12 l-8.2 0 l0 12.26 z M50.38 12 c0.48 0 0.66 0.32 0.4 0.72 l-10.74 16.44 l0 10.24 c0 0.36 -0.24 0.6 -0.6 0.6 l-1.3 0 c-0.36 0 -0.6 -0.24 -0.6 -0.6 l0 -10.24 l-10.72 -16.44 c-0.26 -0.4 -0.08 -0.72 0.4 -0.72 l1.58 0 c0.32 0 0.54 0.12 0.72 0.4 l9.28 14.26 l9.28 -14.26 c0.18 -0.28 0.4 -0.4 0.72 -0.4 l1.58 0 z M75 12 c0.36 0 0.6 0.24 0.6 0.6 l0 1.16 c0 0.36 -0.24 0.6 -0.6 0.6 l-8.9 0 l0 25.04 c0 0.36 -0.24 0.6 -0.6 0.6 l-1.3 0 c-0.36 0 -0.6 -0.24 -0.6 -0.6 l0 -25.04 l-8.9 0 c-0.36 0 -0.6 -0.24 -0.6 -0.6 l0 -1.16 c0 -0.36 0.24 -0.6 0.6 -0.6 l20.3 0 z M101.06 12 c0.36 0 0.6 0.24 0.6 0.6 l0 26.8 c0 0.36 -0.24 0.6 -0.6 0.6 l-1.3 0 c-0.36 0 -0.6 -0.24 -0.6 -0.6 l0 -12.58 l-15.76 0 l0 12.58 c0 0.36 -0.24 0.6 -0.6 0.6 l-1.3 0 c-0.36 0 -0.6 -0.24 -0.6 -0.6 l0 -26.8 c0 -0.36 0.24 -0.6 0.6 -0.6 l1.3 0 c0.36 0 0.6 0.24 0.6 0.6 l0 11.86 l15.76 0 l0 -11.86 c0 -0.36 0.24 -0.6 0.6 -0.6 l1.3 0 z M135.7 12 c0.36 0 0.6 0.24 0.6 0.6 l0 26.8 c0 0.36 -0.24 0.6 -0.6 0.6 l-1.3 0 c-0.36 0 -0.6 -0.24 -0.6 -0.6 l0 -23.22 l-10.08 23.38 c-0.12 0.32 -0.34 0.44 -0.66 0.44 l-1.46 0 c-0.32 0 -0.54 -0.12 -0.66 -0.44 l-9.98 -23.16 l0 23 c0 0.36 -0.24 0.6 -0.6 0.6 l-1.3 0 c-0.36 0 -0.6 -0.24 -0.6 -0.6 l0 -26.8 c0 -0.36 0.24 -0.6 0.6 -0.6 l1.94 0 c0.32 0 0.6 0.12 0.72 0.4 l10.64 24.86 l10.58 -24.86 c0.12 -0.28 0.4 -0.4 0.72 -0.4 l2.04 0 z M164.82 39.32 c0.16 0.4 -0.04 0.68 -0.48 0.68 l-1.26 0 c-0.32 0 -0.54 -0.12 -0.68 -0.48 l-2.3 -6.06 l-14.12 0 l-2.3 6.06 c-0.14 0.36 -0.36 0.48 -0.68 0.48 l-1.26 0 c-0.44 0 -0.64 -0.28 -0.48 -0.68 l10.32 -26.84 c0.12 -0.32 0.42 -0.48 0.74 -0.48 l1.48 0 c0.32 0 0.58 0.16 0.7 0.48 z M146.88 31.14 l12.32 0 l-6.16 -16.2 z M189.18 12 c0.36 0 0.6 0.24 0.6 0.6 l0 1.16 c0 0.36 -0.24 0.6 -0.6 0.6 l-8.9 0 l0 25.04 c0 0.36 -0.24 0.6 -0.6 0.6 l-1.3 0 c-0.36 0 -0.6 -0.24 -0.6 -0.6 l0 -25.04 l-8.9 0 c-0.36 0 -0.6 -0.24 -0.6 -0.6 l0 -1.16 c0 -0.36 0.24 -0.6 0.6 -0.6 l20.3 0 z M213.68 14.36 l-8 0 l0 23.28 l8 0 c0.36 0 0.6 0.24 0.6 0.6 l0 1.16 c0 0.36 -0.24 0.6 -0.6 0.6 l-18.5 0 c-0.36 0 -0.6 -0.24 -0.6 -0.6 l0 -1.16 c0 -0.36 0.24 -0.6 0.6 -0.6 l8 0 l0 -23.28 l-8 0 c-0.36 0 -0.6 -0.24 -0.6 -0.6 l0 -1.16 c0 -0.36 0.24 -0.6 0.6 -0.6 l18.5 0 c0.36 0 0.6 0.24 0.6 0.6 l0 1.16 c0 0.36 -0.24 0.6 -0.6 0.6 z M242.32 35.12 l0.86 0.86 c0.3 0.28 0.24 0.6 -0.04 0.84 c-2.62 2.42 -5.56 3.7 -9.36 3.7 c-7.94 0 -14 -6.42 -14 -14.4 c0 -8.04 6.06 -14.44 14 -14.44 c3.8 0 6.74 1.4 9.36 3.68 c0.28 0.24 0.34 0.56 0.04 0.84 l-0.86 0.88 c-0.3 0.28 -0.56 0.22 -0.84 -0.02 c-2.16 -1.86 -4.56 -2.96 -7.68 -2.96 c-6.36 0 -11.5 5.14 -11.5 12.02 c0 6.82 5.14 11.96 11.5 11.96 c3.12 0 5.52 -1.08 7.68 -2.96 c0.28 -0.24 0.54 -0.28 0.84 0 z"/></g>
			</g>
		</svg>
	